<svg width="90" height="90" viewBox="0 0 90 90" fill="none" xmlns="http://www.w3.org/2000/svg">
<rect width="90" height="90" rx="45" fill="white"/>
<rect x="0.5" y="0.5" width="89" height="89" rx="44.5" stroke="black" stroke-opacity="0.05"/>
<path d="M32.8949 30.6832L32.554 29.3265C32.322 28.4031 31.3889 27.8436 30.4683 28.0763C29.5485 28.3093 28.991 29.247 29.223 30.1705L30.3578 34.6859L25.6793 32.0234C24.8541 31.5536 23.8057 31.8447 23.338 32.6734C22.8702 33.5021 23.1601 34.5545 23.9855 35.0242L28.6638 37.6866L24.223 39.0288C23.3145 39.3035 22.8 40.2654 23.0733 41.1775C23.2971 41.9239 23.9793 42.4054 24.7175 42.4053C24.8814 42.4053 25.0482 42.3817 25.2133 42.3319L32.7978 40.0392L36.636 42.2234V47.7766L32.7979 49.9607L25.2133 47.668C24.3046 47.3937 23.3468 47.9104 23.0733 48.8225C22.8 49.7345 23.3145 50.6964 24.223 50.9711L28.6638 52.3133L23.9855 54.9758C23.1601 55.4454 22.8702 56.4978 23.338 57.3265C23.6542 57.8866 24.2355 58.2011 24.834 58.2011C25.1209 58.2011 25.4118 58.1288 25.6793 57.9765L30.3578 55.3141L29.223 59.8294C28.991 60.7529 29.5485 61.6906 30.4683 61.9236C30.606 61.9587 30.7476 61.9764 30.8897 61.9765C31.6579 61.9765 32.3576 61.4552 32.554 60.6734L34.4922 52.9613L38.2825 50.8043L43.2818 53.7025L43.2819 58.1049L41.1628 60.1384M38.9851 62.2281L37.5559 63.5996C36.87 64.2578 36.8455 65.3495 37.5009 66.0381C38.1564 66.7267 39.2439 66.7512 39.9295 66.0933L43.2821 62.8761L43.2823 68.2754C43.2823 69.2278 44.0514 70 45 70C45.9487 70 46.7177 69.2277 46.7177 68.2752L46.7175 62.8757L50.0705 66.0933C50.3898 66.4005 50.815 66.5717 51.2572 66.5712C51.7097 66.5712 52.1617 66.3925 52.4991 66.0381C53.1545 65.3495 53.13 64.2578 52.4441 63.5996L46.7173 58.1043L46.7172 53.7024L51.7161 50.8046L55.5081 52.9622L57.446 60.6734C57.6426 61.4552 58.342 61.9765 59.1101 61.9765C59.2493 61.9765 59.3908 61.9594 59.5317 61.9236C60.4516 61.6906 61.009 60.7529 60.777 59.8294L59.6423 55.3146L64.3207 57.9766C64.5784 58.1238 64.8697 58.2011 65.1662 58.2011C65.7645 58.2011 66.3459 57.8866 66.6621 57.3264C67.1297 56.4978 66.8399 55.4453 66.0147 54.9757L61.3358 52.3134L65.7771 50.9711C66.6854 50.6964 67.2002 49.7345 66.9266 48.8225C66.653 47.9103 65.6949 47.3934 64.7868 47.668L57.2014 49.9609L53.3631 47.777V42.223L57.2015 40.039L59.9538 40.871M62.8379 41.7427L64.7868 42.3319C64.9476 42.3805 65.1146 42.4053 65.2825 42.4053C66.0209 42.4053 66.7028 41.9238 66.9266 41.1775C67.2002 40.2654 66.6854 39.3035 65.7771 39.0288L61.3358 37.6865L66.0147 35.0243C66.8399 34.5546 67.1297 33.5021 66.6621 32.6735C66.1945 31.8449 65.1462 31.5538 64.3207 32.0233L59.6423 34.6854L60.777 30.1705C61.009 29.247 60.4516 28.3093 59.5317 28.0763C58.6123 27.8435 57.6781 28.4029 57.446 29.3265L55.5081 37.0377L51.7133 39.197L46.7172 36.3009L46.7173 31.8956L52.4441 26.4002C53.13 25.7421 53.1545 24.6504 52.4991 23.9618C51.8436 23.2732 50.7561 23.2486 50.0705 23.9067L46.7175 27.1242L46.7177 21.7247C46.7177 20.7722 45.9487 20 45 20C44.0514 20 43.2823 20.7721 43.2823 21.7245L43.2821 27.1239L39.9295 23.9067C39.2437 23.2485 38.1564 23.2732 37.5009 23.9618C36.8455 24.6504 36.87 25.7421 37.5559 26.4002L43.2819 31.8951L43.2818 36.3009L38.2854 39.1973L34.4922 37.0386L33.6319 33.6157M49.9278 47.8585L44.9995 50.7153L40.0714 47.8585V42.1448L44.9995 39.2879L49.9278 42.1448V47.8585Z" stroke="#024EFF" stroke-width="1.5" stroke-miterlimit="10" stroke-linecap="round" stroke-linejoin="round"/>
</svg>
