<svg xmlns="http://www.w3.org/2000/svg" viewBox="0 0 51 55" fill="none">
  <!-- bottom flat curve -->
  <path transform="translate(0,48.67)" fill="white" d="M17.0639 2.6605C12.1941 1.31533 7.09565 0.63676 2.1498 0.0151088C1.08454 -0.115213 0.0955193 0.612039 0.0194293 1.63664C-0.132751 2.66199 0.628596 3.59971 1.61777 3.73003C6.41144 4.32846 11.3568 4.96884 15.9983 6.26382C16.9875 6.54468 18.0532 5.96648 18.3576 4.97184C18.6619 3.97795 18.0531 2.94211 17.0639 2.6605Z"/>
  <!-- diagonal arc -->
  <path transform="translate(4.20,8.85)" fill="white" d="M27.6219 23.4092C19.7847 15.5367 10.9582 8.67754 3.27314 0.593826C2.58833 -0.161143 1.37089 -0.20159 0.609985 0.503198C-0.150915 1.20873 -0.226708 2.39511 0.534192 3.15008C8.21929 11.257 17.0457 18.1386 24.883 26.0343C25.6439 26.7713 26.861 26.7818 27.6219 26.0568C28.3068 25.3325 28.3828 24.1462 27.6219 23.4092Z"/>
  <!-- thin vertical stroke -->
  <path transform="translate(46.51,0)" fill="white" d="M0.00481293 1.97413C0.233083 6.47997 0.460907 10.9858 0.689177 15.4924C0.689177 16.5245 1.6027 17.3214 2.66796 17.2712C3.73323 17.2203 4.49368 16.3418 4.49368 15.3089C4.26541 10.7956 4.03759 6.28299 3.80931 1.7704C3.73323 0.73831 2.82 -0.0533595 1.75474 0.00281378C0.765565 0.0589871 -0.0712771 0.942783 0.00481293 1.97413Z"/>
</svg>
